<svg version="1.2" xmlns="http://www.w3.org/2000/svg" viewBox="0 0 512 512" width="512" height="512">
	<title>favicon</title>
	<style>
		.s0 { fill: #e3e3e3 } 
		.s1 { fill: #0040ff } 
		.s2 { fill: #262626 } 
	</style>
	<path id="Background" class="s0" d="m33.5 1c-3.3 0.4-7.8 1.2-10 1.8-2.2 0.6-6.2 2.6-9 4.4-3 2-6.2 5.3-8 8.3-1.7 2.7-3.7 7.9-4.5 11.5-1.3 5.6-1.5 36.5-1.5 229 0 192.5 0.2 223.4 1.5 229 0.8 3.6 2.8 8.7 4.5 11.5 1.8 3 5 6.3 8 8.3 2.8 1.8 6.8 3.8 9 4.4 2.2 0.6 7.1 1.4 11 1.9 3.8 0.4 103.5 0.8 221.5 0.8 118 0 217.6-0.4 221.5-0.8 3.8-0.5 8.8-1.3 11-1.9 2.2-0.6 6.2-2.6 9-4.4 3-2 6.2-5.3 8-8.3 1.7-2.8 3.7-7.9 4.5-11.5 1.3-5.6 1.5-36.5 1.5-229 0-192.5-0.2-223.4-1.5-229-0.8-3.6-2.8-8.8-4.5-11.5-1.8-3-5-6.3-8-8.3-2.8-1.8-6.8-3.8-9-4.4-2.2-0.6-7.2-1.4-11-1.9-3.9-0.4-104-0.8-222.5-0.7-118.5 0-218.2 0.4-221.5 0.8z"/>
	<path id="." class="s1" d="m434.2 422.7h62.8v62.6h-62.8z"/>
	<path id="TH" class="s2" d="m186.1 269.8h158.3v215.2h52.1v-458h-52.1v187h-158.3zm0.6-187h119.3v-55.8h-292v55.8h119.9v402.3h52.8z"/>
</svg>